<svg width="8" height="8" viewBox="0 0 8 8" fill="none" xmlns="http://www.w3.org/2000/svg">
<path d="M3.75001 0C1.67813 0 0 1.67812 0 3.75C0 5.40937 1.07344 6.81094 2.56406 7.30781C2.75156 7.34062 2.82188 7.22812 2.82188 7.12969C2.82188 7.04062 2.81719 6.74531 2.81719 6.43125C1.875 6.60469 1.63125 6.20156 1.55625 5.99062C1.51406 5.88281 1.33125 5.55 1.17188 5.46094C1.04063 5.39062 0.853125 5.21719 1.16719 5.2125C1.4625 5.20781 1.67344 5.48437 1.74375 5.59687C2.08125 6.16406 2.62031 6.00469 2.83594 5.90625C2.86875 5.6625 2.96719 5.49844 3.07501 5.40469C2.24062 5.31094 1.36875 4.9875 1.36875 3.55312C1.36875 3.14531 1.51406 2.80781 1.75313 2.54531C1.71563 2.45156 1.58438 2.06719 1.79063 1.55156C1.79063 1.55156 2.10469 1.45312 2.82188 1.93594C3.12188 1.85156 3.44063 1.80937 3.75938 1.80937C4.07813 1.80937 4.39688 1.85156 4.69688 1.93594C5.41407 1.44844 5.72813 1.55156 5.72813 1.55156C5.93438 2.06719 5.80313 2.45156 5.76563 2.54531C6.00469 2.80781 6.15001 3.14062 6.15001 3.55312C6.15001 4.99219 5.27345 5.31094 4.43907 5.40469C4.57501 5.52187 4.69219 5.74687 4.69219 6.09844C4.69219 6.6 4.68751 7.00312 4.68751 7.12969C4.68751 7.22812 4.75782 7.34531 4.94532 7.30781C6.47176 6.79249 7.49959 5.36111 7.50001 3.75C7.50001 1.67812 5.82188 0 3.75001 0Z" fill="black"/>
</svg>
